<?xml version="1.0" encoding="UTF-8" standalone="no"?>
<!-- Generator: Adobe Illustrator 19.0.0, SVG Export Plug-In . SVG Version: 6.00 Build 0)  -->

<svg
   xmlns:osb="http://www.openswatchbook.org/uri/2009/osb"
   xmlns:dc="http://purl.org/dc/elements/1.1/"
   xmlns:cc="http://creativecommons.org/ns#"
   xmlns:rdf="http://www.w3.org/1999/02/22-rdf-syntax-ns#"
   xmlns:svg="http://www.w3.org/2000/svg"
   xmlns="http://www.w3.org/2000/svg"
   xmlns:sodipodi="http://sodipodi.sourceforge.net/DTD/sodipodi-0.dtd"
   xmlns:inkscape="http://www.inkscape.org/namespaces/inkscape"
   version="1.1"
   id="Layer_1"
   x="0px"
   y="0px"
   viewBox="-2.7755576e-17 0 814.9559 403.56453"
   xml:space="preserve"
   sodipodi:docname="paneles.svg"
   width="81.49559"
   height="40.356453"
   inkscape:version="0.92.5 (2060ec1f9f, 2020-04-08)"><metadata
   id="metadata43"><rdf:RDF><cc:Work
       rdf:about=""><dc:format>image/svg+xml</dc:format><dc:type
         rdf:resource="http://purl.org/dc/dcmitype/StillImage" /><dc:title /></cc:Work></rdf:RDF></metadata><defs
   id="defs41"><linearGradient
     id="linearGradient4748"
     osb:paint="solid"><stop
       style="stop-color:#000000;stop-opacity:1;"
       offset="0"
       id="stop4746" /></linearGradient><linearGradient
     id="linearGradient4742"
     osb:paint="solid"><stop
       style="stop-color:#007e00;stop-opacity:1;"
       offset="0"
       id="stop4740" /></linearGradient><linearGradient
     id="linearGradient4736"
     osb:paint="solid"><stop
       style="stop-color:#000000;stop-opacity:1;"
       offset="0"
       id="stop4734" /></linearGradient></defs><sodipodi:namedview
   pagecolor="#ffffff"
   bordercolor="#666666"
   borderopacity="1"
   objecttolerance="10"
   gridtolerance="10"
   guidetolerance="10"
   inkscape:pageopacity="0"
   inkscape:pageshadow="2"
   inkscape:window-width="1920"
   inkscape:window-height="1147"
   id="namedview39"
   showgrid="false"
   inkscape:zoom="14.75"
   inkscape:cx="51.533695"
   inkscape:cy="32.635562"
   inkscape:window-x="-8"
   inkscape:window-y="-8"
   inkscape:window-maximized="1"
   inkscape:current-layer="g4"
   scale-x="20"
   fit-margin-top="0.1"
   fit-margin-left="0.1"
   fit-margin-right="0.1"
   fit-margin-bottom="0.1"
   viewbox-x="-2.7755576e-17" />
<g
   id="g6"
   transform="translate(-0.88608365,-106.36548)">
	<g
   id="g4">
		<path
   d="M 668.41439,440.02225 576.30483,242.48649 c -7.305,-19.482 -24.56594,-20.59194 -45.37488,-20.63879 l -240.86821,-0.54238 c -20.80695,-0.0468 -41.86549,0.0721 -49.17049,19.55405 l -89.3987,200.79 c -12.294,32.788 18.49848,67.28063 53.50948,67.28063 h 419.84051 c 13.93923,-0.23319 64.2003,-8.55507 43.57185,-68.90775 z M 309.26703,475.465 h -104.264 c -11.706,0 -19.773,-11.657 -15.667,-22.609 l 16.621,-44.321 h 111.677 z m 12.549,-100.395 h -103.31 l 25.099,-66.93 92.00173,-0.54237 z m 16.88898,-98.22551 h -83.63573 l 9.56275,-24.77849 c 2.435,-6.493 8.731,-10.856 15.667,-10.856 l 66.38559,-1.08475 z m 39.53412,-36.17586 71.0229,0.54237 4.72537,35.09212 h -82.64413 z m -11.07886,66.929 92.63725,0.54237 6.19651,66.93 h -110.454 z m -24.16924,167.86737 8.366,-66.93 121.53286,0.54237 5.65414,66.38763 z M 476.47756,241.211 h 64.75847 c 6.936,0 13.232,4.363 15.667,10.856 l 8.478,22.609 -81.46624,-0.54237 z m 11.62023,65.84425 89.83224,1.08475 25.099,66.93 H 498.63328 Z M 616.53203,475.465 h -104.265 l -8.366,-66.93 h 111.677 l 16.621,44.321 c 4.11,10.961 -3.971,22.609 -15.667,22.609 z"
   id="path2"
   inkscape:connector-curvature="0"
   sodipodi:nodetypes="ccssccscccsccccccccccccsccccccccccccccccccscccccccccsccccs" />
	<path
   style="fill:#000000;fill-opacity:1;stroke:#000000;stroke-width:0.80000001;stroke-linecap:butt;stroke-linejoin:miter;stroke-miterlimit:4;stroke-dasharray:none;stroke-opacity:1"
   d="M 26.232422 0.53515625 C 24.624469 0.54683675 22.058878 0.5699748 15.925781 0.57617188 C 15.188816 0.66920688 13.970858 0.90314276 12.902344 2.5722656 C 6.4807855 12.030223 5.6644225 12.451975 0.69726562 19.695312 C 0.01485466 21.596284 1.1403406 21.432683 3.8691406 21.402344 C 11.316585 21.317767 18.873047 21.185547 18.873047 21.185547 C 18.873047 21.185547 22.167285 13.615658 23.556641 11.478516 C 24.240911 10.154932 26.919922 10.121094 26.919922 10.121094 L 32.785156 10.138672 C 33.604942 9.9802482 34.25478 6.8900795 35.363281 3.2890625 C 36.104847 0.2874675 35.042613 0.76942688 30.792969 0.56054688 C 28.491204 0.5238538 27.840375 0.52347575 26.232422 0.53515625 z M 19.673828 1.4257812 C 20.56593 1.4276162 21.210936 1.4394531 21.210938 1.4394531 L 18.587891 5.0878906 L 12.595703 5.0332031 C 12.595703 5.0332031 14.14347 3.052811 14.542969 2.46875 C 15.113037 1.778238 15.544856 1.5683174 16.652344 1.4746094 C 17.642147 1.4324924 18.781727 1.423947 19.673828 1.4257812 z M 22.640625 1.4707031 L 27.5 1.5351562 L 25.365234 4.9609375 L 20.265625 4.921875 L 22.640625 1.4707031 z M 32.832031 1.6113281 C 33.190736 1.7183741 34.924464 1.4863922 34.806641 2.7382812 L 33.896484 5.1523438 L 26.84375 5.0488281 L 28.673828 1.6132812 L 32.832031 1.6113281 z M 33.626953 6.2597656 L 32.402344 9.2714844 L 24.773438 9.1992188 L 26.443359 6.2636719 L 33.626953 6.2597656 z M 18.001953 6.2734375 L 14.173828 12.101562 L 7.8007812 12.101562 L 11.929688 6.3164062 L 18.001953 6.2734375 z M 19.71875 6.3710938 L 24.763672 6.3710938 L 21.695312 12.277344 L 15.912109 12.318359 L 19.71875 6.3710938 z M 13.3125 13.566406 L 9.0292969 19.830078 C 9.0292969 19.830078 7.4325105 19.908065 3.6328125 19.9375 C 2.6970935 19.818844 1.9111901 19.892965 2.8613281 18.753906 C 5.3254181 15.444443 6.8129867 13.540408 6.75 13.619141 L 13.3125 13.566406 z M 21.384766 13.576172 L 18.226562 19.894531 L 10.875 19.882812 L 14.943359 13.591797 L 21.384766 13.576172 z "
   transform="matrix(10,0,0,10,0.88608365,106.36548)"
   id="path68" /><path
   style="fill:#000000;fill-opacity:1;stroke:#000000;stroke-width:0.80000001;stroke-linecap:butt;stroke-linejoin:miter;stroke-miterlimit:4;stroke-dasharray:none;stroke-opacity:1"
   d="M 55.263672 0.5078125 C 53.655719 0.49613212 53.00489 0.4945575 50.703125 0.53125 C 46.453481 0.740131 45.391246 0.25817076 46.132812 3.2597656 C 47.241321 6.8607826 47.40287 9.950952 48.222656 10.109375 L 54.576172 10.09375 C 54.576172 10.09375 57.253229 10.125636 57.9375 11.449219 C 59.326855 13.586362 62.601564 21.158203 62.601562 21.158203 C 62.601562 21.158203 70.179509 21.290423 77.626953 21.375 C 80.355753 21.405339 81.481239 21.56698 80.798828 19.666016 C 75.831671 12.422679 75.013352 12.000925 68.591797 2.5429688 C 67.523282 0.8738444 66.307285 0.63991 65.570312 0.546875 C 59.437215 0.540678 56.871625 0.51949288 55.263672 0.5078125 z M 61.820312 1.3964844 C 62.712419 1.3946501 63.851994 1.4031955 64.841797 1.4453125 C 65.949285 1.5390195 66.383057 1.7489421 66.953125 2.4394531 C 67.352624 3.0235151 68.900391 5.0039063 68.900391 5.0039062 L 62.908203 5.0605469 L 60.285156 1.4121094 C 60.285156 1.4121094 60.928211 1.3983186 61.820312 1.3964844 z M 58.855469 1.4414062 L 61.228516 4.8945312 L 56.128906 4.9316406 L 53.994141 1.5078125 L 58.855469 1.4414062 z M 48.664062 1.5820312 L 52.822266 1.5859375 L 54.652344 5.0195312 L 47.4375 5.0703125 L 46.689453 2.7089844 C 46.57163 1.4570944 48.305357 1.689079 48.664062 1.5820312 z M 47.869141 6.2304688 L 55.052734 6.234375 L 56.722656 9.171875 L 48.714844 9.2421875 L 47.869141 6.2304688 z M 63.492188 6.2441406 L 69.564453 6.2871094 L 73.693359 12.072266 L 67.320312 12.072266 L 63.492188 6.2441406 z M 56.730469 6.34375 L 61.777344 6.34375 L 65.582031 12.289062 L 59.800781 12.248047 L 56.730469 6.34375 z M 68.181641 13.537109 L 74.744141 13.591797 C 74.681154 13.513063 76.168722 15.415145 78.632812 18.724609 C 79.582951 19.863668 78.799 19.7915 77.863281 19.910156 C 74.063583 19.880721 72.466797 19.800781 72.466797 19.800781 L 68.181641 13.537109 z M 60.310547 13.546875 L 66.751953 13.564453 L 70.820312 19.855469 L 63.46875 19.867188 L 60.310547 13.546875 z "
   transform="matrix(10,0,0,10,0.88608365,106.36548)"
   id="path68-4" /></g>
</g>
<g
   id="g8"
   transform="translate(-0.88608365,-106.36548)">
</g>
<g
   id="g10"
   transform="translate(-0.88608365,-106.36548)">
</g>
<g
   id="g12"
   transform="translate(-0.88608365,-106.36548)">
</g>
<g
   id="g14"
   transform="translate(-0.88608365,-106.36548)">
</g>
<g
   id="g16"
   transform="translate(-0.88608365,-106.36548)">
</g>
<g
   id="g18"
   transform="translate(-0.88608365,-106.36548)">
</g>
<g
   id="g20"
   transform="translate(-0.88608365,-106.36548)">
</g>
<g
   id="g22"
   transform="translate(-0.88608365,-106.36548)">
</g>
<g
   id="g24"
   transform="translate(-0.88608365,-106.36548)">
</g>
<g
   id="g26"
   transform="translate(-0.88608365,-106.36548)">
</g>
<g
   id="g28"
   transform="translate(-0.88608365,-106.36548)">
</g>
<g
   id="g30"
   transform="translate(-0.88608365,-106.36548)">
</g>
<g
   id="g32"
   transform="translate(-0.88608365,-106.36548)">
</g>
<g
   id="g34"
   transform="translate(-0.88608365,-106.36548)">
</g>
<g
   id="g36"
   transform="translate(-0.88608365,-106.36548)">
</g>
</svg>