<?xml version="1.0" encoding="UTF-8" standalone="no" ?>
<!DOCTYPE svg PUBLIC "-//W3C//DTD SVG 1.1//EN" "http://www.w3.org/Graphics/SVG/1.1/DTD/svg11.dtd">
<svg xmlns="http://www.w3.org/2000/svg" xmlns:xlink="http://www.w3.org/1999/xlink" version="1.1" width="1280" height="1024" viewBox="0 0 1280 1024" xml:space="preserve">
<desc>Created with Fabric.js 3.1.0</desc>
<defs>
</defs>
<g transform="matrix(1 0 0 1 640 512)" id="background-logo"  >
<rect style="stroke: none; stroke-width: 1; stroke-dasharray: none; stroke-linecap: butt; stroke-dashoffset: 0; stroke-linejoin: miter; stroke-miterlimit: 4; fill: rgb(255,255,255); fill-rule: nonzero; opacity: 1;"  paint-order="stroke"  x="-640" y="-512" rx="0" ry="0" width="1280" height="1024" />
</g>
<g transform="matrix(1.9281982367162973 0 0 1.9281982367162973 639.9999940683392 423.14377801555014)" style="" id="logo-logo"  >
	<g transform="matrix(0.02218 0 0 -0.02218 2.3979630179641163 100.03332388076015)"  >
<path style="stroke: none; stroke-width: 1; stroke-dasharray: none; stroke-linecap: butt; stroke-dashoffset: 0; stroke-linejoin: miter; stroke-miterlimit: 4; fill: rgb(84,84,85); fill-rule: nonzero; opacity: 1;"  paint-order="stroke"  transform=" translate(-7442.9270618540495, -4926.03875)" d="m 7869.38 3547.12 c -235.52 -177.25 -617.37 -177.25 -852.89 0 l -4214.15 3171.4 c -48.01 36.12 -85.7 76.99 -114.15 120.41 c -111.04 -169.56 -73.36 -380.34 114.15 -521.44 L 7016.49 3146.07 c 235.52 -177.23 617.37 -177.23 852.89 0 l 4214.12 3171.42 c 187.5 141.1 225.2 351.88 114.2 521.44 c -28.5 -43.42 -66.2 -84.29 -114.2 -120.41 L 7869.38 3547.12" stroke-linecap="round" />
</g>
	<g transform="matrix(0.02218 0 0 -0.02218 -2.1005869820359067 -13.167136119239842)"  >
<linearGradient id="SVGID_3660" gradientUnits="userSpaceOnUse" gradientTransform="matrix(1 0 0 1 6300.047500000001 9323.0075)"  x1="0" y1="0" x2="0" y2="1415">
<stop offset="0%" style="stop-color:rgb(180,236,81);stop-opacity: 1"/>
<stop offset="100%" style="stop-color:rgb(66,147,33);stop-opacity: 1"/>
</linearGradient>
<path style="stroke: none; stroke-width: 1; stroke-dasharray: none; stroke-linecap: butt; stroke-dashoffset: 0; stroke-linejoin: miter; stroke-miterlimit: 4; fill: url(#SVGID_3660); fill-rule: nonzero; opacity: 1;"  paint-order="stroke"  transform=" translate(-7240.08, -10030.44125)" d="m 7417.3 9378.26 c -97.87 -73.67 -256.56 -73.67 -354.44 0 l -689.41 518.81 c -97.87 73.67 -97.87 193.13 0 266.73 l 689.41 518.8 c 97.88 73.7 256.57 73.7 354.44 0 l 689.41 -518.8 c 97.87 -73.6 97.87 -193.06 0 -266.73 L 7417.3 9378.26" stroke-linecap="round" />
</g>
	<g transform="matrix(0.02218 0 0 -0.02218 26.036713017964075 8.007623880760178)"  >
<linearGradient id="SVGID_3661" gradientUnits="userSpaceOnUse" gradientTransform="matrix(1 0 0 1 7568.789999999999 8368.192500000001)"  x1="0" y1="0" x2="0" y2="1415">
<stop offset="0%" style="stop-color:rgb(180,236,81);stop-opacity: 1"/>
<stop offset="100%" style="stop-color:rgb(66,147,33);stop-opacity: 1"/>
</linearGradient>
<path style="stroke: none; stroke-width: 1; stroke-dasharray: none; stroke-linecap: butt; stroke-dashoffset: 0; stroke-linejoin: miter; stroke-miterlimit: 4; fill: url(#SVGID_3661); fill-rule: nonzero; opacity: 1;"  paint-order="stroke"  transform=" translate(-8508.838749999999, -9075.635)" d="m 8686.07 8423.43 c -97.89 -73.65 -256.59 -73.65 -354.45 0 l -689.42 518.84 c -97.88 73.64 -97.88 193.09 0 266.74 l 689.42 518.83 c 97.86 73.65 256.56 73.65 354.45 0 l 689.4 -518.83 c 97.89 -73.65 97.89 -193.1 0 -266.74 l -689.4 -518.84" stroke-linecap="round" />
</g>
	<g transform="matrix(0.02218 0 0 -0.02218 54.1737030179641 29.182633880760136)"  >
<linearGradient id="SVGID_3662" gradientUnits="userSpaceOnUse" gradientTransform="matrix(1 0 0 1 8837.5425 7413.377499999999)"  x1="0" y1="0" x2="0" y2="1415">
<stop offset="0%" style="stop-color:rgb(180,236,81);stop-opacity: 1"/>
<stop offset="100%" style="stop-color:rgb(66,147,33);stop-opacity: 1"/>
</linearGradient>
<path style="stroke: none; stroke-width: 1; stroke-dasharray: none; stroke-linecap: butt; stroke-dashoffset: 0; stroke-linejoin: miter; stroke-miterlimit: 4; fill: url(#SVGID_3662); fill-rule: nonzero; opacity: 1;"  paint-order="stroke"  transform=" translate(-9777.583749999998, -8120.817499999999)" d="m 9954.8 7468.63 c -97.87 -73.67 -256.55 -73.67 -354.44 0 l -689.4 518.81 c -97.89 73.67 -97.89 193.1 0 266.74 l 689.4 518.84 c 97.89 73.65 256.57 73.65 354.44 0 l 689.4 -518.84 c 97.9 -73.64 97.9 -193.07 0 -266.74 l -689.4 -518.81" stroke-linecap="round" />
</g>
	<g transform="matrix(0.02218 0 0 -0.02218 -28.837146982035904 6.9536638807601605)"  >
<linearGradient id="SVGID_3663" gradientUnits="userSpaceOnUse" gradientTransform="matrix(1 0 0 1 5094.445 8415.717499999999)"  x1="0" y1="0" x2="0" y2="1415">
<stop offset="0%" style="stop-color:rgb(180,236,81);stop-opacity: 1"/>
<stop offset="100%" style="stop-color:rgb(66,147,33);stop-opacity: 1"/>
</linearGradient>
<path style="stroke: none; stroke-width: 1; stroke-dasharray: none; stroke-linecap: butt; stroke-dashoffset: 0; stroke-linejoin: miter; stroke-miterlimit: 4; fill: url(#SVGID_3663); fill-rule: nonzero; opacity: 1;"  paint-order="stroke"  transform=" translate(-6034.4825, -9123.16)" d="m 6211.7 8470.97 c -97.88 -73.67 -256.56 -73.67 -354.45 0 l -689.41 518.82 c -97.86 73.66 -97.86 193.07 0 266.74 l 689.41 518.82 c 97.89 73.67 256.57 73.67 354.45 0 l 689.41 -518.82 c 97.88 -73.67 97.88 -193.08 0 -266.74 L 6211.7 8470.97" stroke-linecap="round" />
</g>
	<g transform="matrix(0.02218 0 0 -0.02218 -0.7001369820359287 28.12878388076018)"  >
<linearGradient id="SVGID_3664" gradientUnits="userSpaceOnUse" gradientTransform="matrix(1 0 0 1 6363.18 7460.897500000001)"  x1="0" y1="0" x2="0" y2="1415">
<stop offset="0%" style="stop-color:rgb(180,236,81);stop-opacity: 1"/>
<stop offset="100%" style="stop-color:rgb(66,147,33);stop-opacity: 1"/>
</linearGradient>
<path style="stroke: none; stroke-width: 1; stroke-dasharray: none; stroke-linecap: butt; stroke-dashoffset: 0; stroke-linejoin: miter; stroke-miterlimit: 4; fill: url(#SVGID_3664); fill-rule: nonzero; opacity: 1;"  paint-order="stroke"  transform=" translate(-7303.22875, -8168.3375)" d="m 7480.45 7516.15 c -97.88 -73.67 -256.56 -73.67 -354.44 0 l -689.42 518.83 c -97.88 73.65 -97.88 193.07 0 266.73 l 689.42 518.83 c 97.88 73.65 256.56 73.65 354.44 0 l 689.41 -518.83 c 97.89 -73.66 97.89 -193.08 0 -266.73 l -689.41 -518.83" stroke-linecap="round" />
</g>
	<g transform="matrix(0.02218 0 0 -0.02218 27.436943017964097 49.30374388076021)"  >
<linearGradient id="SVGID_3665" gradientUnits="userSpaceOnUse" gradientTransform="matrix(1 0 0 1 7631.939999999999 6506.0825)"  x1="0" y1="0" x2="0" y2="1415">
<stop offset="0%" style="stop-color:rgb(180,236,81);stop-opacity: 1"/>
<stop offset="100%" style="stop-color:rgb(66,147,33);stop-opacity: 1"/>
</linearGradient>
<path style="stroke: none; stroke-width: 1; stroke-dasharray: none; stroke-linecap: butt; stroke-dashoffset: 0; stroke-linejoin: miter; stroke-miterlimit: 4; fill: url(#SVGID_3665); fill-rule: nonzero; opacity: 1;"  paint-order="stroke"  transform=" translate(-8571.977499999999, -7213.5225)" d="m 8749.19 6561.32 c -97.87 -73.65 -256.55 -73.65 -354.43 0 l -689.41 518.83 c -97.88 73.65 -97.88 193.08 0 266.75 l 689.41 518.81 c 97.88 73.67 256.56 73.67 354.43 0 l 689.43 -518.81 c 97.86 -73.67 97.86 -193.1 0 -266.75 l -689.43 -518.83" stroke-linecap="round" />
</g>
	<g transform="matrix(0.02218 0 0 -0.02218 -55.57391698203588 27.074593880760176)"  >
<linearGradient id="SVGID_3666" gradientUnits="userSpaceOnUse" gradientTransform="matrix(1 0 0 1 3888.8274999999994 7508.432500000002)"  x1="0" y1="0" x2="0" y2="1415">
<stop offset="0%" style="stop-color:rgb(180,236,81);stop-opacity: 1"/>
<stop offset="100%" style="stop-color:rgb(66,147,33);stop-opacity: 1"/>
</linearGradient>
<path style="stroke: none; stroke-width: 1; stroke-dasharray: none; stroke-linecap: butt; stroke-dashoffset: 0; stroke-linejoin: miter; stroke-miterlimit: 4; fill: url(#SVGID_3666); fill-rule: nonzero; opacity: 1;"  paint-order="stroke"  transform=" translate(-4828.876249999999, -8215.872500000001)" d="m 5006.11 7563.67 c -97.9 -73.65 -256.58 -73.65 -354.46 0 l -689.42 518.83 c -97.87 73.65 -97.87 193.08 0 266.75 l 689.42 518.81 c 97.88 73.67 256.56 73.67 354.46 0 l 689.39 -518.81 c 97.9 -73.67 97.9 -193.1 0 -266.75 l -689.39 -518.83" stroke-linecap="round" />
</g>
	<g transform="matrix(0.02218 0 0 -0.02218 -27.436836982035857 48.24983388076012)"  >
<linearGradient id="SVGID_3667" gradientUnits="userSpaceOnUse" gradientTransform="matrix(1 0 0 1 5157.580000000001 6553.602499999999)"  x1="0" y1="0" x2="0" y2="1415">
<stop offset="0%" style="stop-color:rgb(180,236,81);stop-opacity: 1"/>
<stop offset="100%" style="stop-color:rgb(66,147,33);stop-opacity: 1"/>
</linearGradient>
<path style="stroke: none; stroke-width: 1; stroke-dasharray: none; stroke-linecap: butt; stroke-dashoffset: 0; stroke-linejoin: miter; stroke-miterlimit: 4; fill: url(#SVGID_3667); fill-rule: nonzero; opacity: 1;"  paint-order="stroke"  transform=" translate(-6097.625000000001, -7261.044999999999)" d="m 6274.85 6608.84 c -97.89 -73.65 -256.56 -73.65 -354.45 0 l -689.41 518.84 c -97.88 73.64 -97.88 193.09 0 266.74 l 689.41 518.83 c 97.89 73.65 256.56 73.65 354.45 0 l 689.41 -518.83 c 97.88 -73.65 97.88 -193.1 0 -266.74 l -689.41 -518.84" stroke-linecap="round" />
</g>
	<g transform="matrix(0.02218 0 0 -0.02218 0.7002930179640998 69.42484388076016)"  >
<linearGradient id="SVGID_3668" gradientUnits="userSpaceOnUse" gradientTransform="matrix(1 0 0 1 6426.330000000002 5598.7875)"  x1="0" y1="0" x2="0" y2="1415">
<stop offset="0%" style="stop-color:rgb(180,236,81);stop-opacity: 1"/>
<stop offset="100%" style="stop-color:rgb(66,147,33);stop-opacity: 1"/>
</linearGradient>
<path style="stroke: none; stroke-width: 1; stroke-dasharray: none; stroke-linecap: butt; stroke-dashoffset: 0; stroke-linejoin: miter; stroke-miterlimit: 4; fill: url(#SVGID_3668); fill-rule: nonzero; opacity: 1;"  paint-order="stroke"  transform=" translate(-7366.376250000001, -6306.2275)" d="m 7543.6 5654.04 c -97.88 -73.67 -256.56 -73.67 -354.44 0 l -689.42 518.81 c -97.88 73.67 -97.88 193.1 0 266.74 l 689.42 518.84 c 97.88 73.65 256.56 73.65 354.44 0 l 689.42 -518.84 c 97.87 -73.64 97.87 -193.07 0 -266.74 L 7543.6 5654.04" stroke-linecap="round" />
</g>
	<g transform="matrix(0.02218 0 0 -0.02218 85.32069301796412 50.452773880760134)"  >
<path style="stroke: none; stroke-width: 1; stroke-dasharray: none; stroke-linecap: butt; stroke-dashoffset: 0; stroke-linejoin: miter; stroke-miterlimit: 4; fill: rgb(84,84,85); fill-rule: nonzero; opacity: 1;"  paint-order="stroke"  transform=" translate(-11201.075, -7166.008749999999)" d="m 11913 7299.39 l -689.4 518.82 c -97.9 73.65 -256.6 73.65 -354.5 0 l -34.4 -25.94 c -95.5 -334.67 -237.5 -649.52 -418.9 -937.34 l 453.3 -341.1 c 97.9 -73.68 256.6 -73.68 354.5 0 l 689.4 518.81 c 97.8 73.66 97.8 193.07 0 266.75" stroke-linecap="round" />
</g>
	<g transform="matrix(0.02218 0 0 -0.02218 69.54024301796409 46.86255388076009)"  >
<linearGradient id="SVGID_3669" gradientUnits="userSpaceOnUse" gradientTransform="matrix(1 0 0 1 10106.274999999998 6854.93)"  x1="0" y1="0" x2="0" y2="937">
<stop offset="0%" style="stop-color:rgb(180,236,81);stop-opacity: 1"/>
<stop offset="100%" style="stop-color:rgb(66,147,33);stop-opacity: 1"/>
</linearGradient>
<path style="stroke: none; stroke-width: 1; stroke-dasharray: none; stroke-linecap: butt; stroke-dashoffset: 0; stroke-linejoin: miter; stroke-miterlimit: 4; fill: url(#SVGID_3669); fill-rule: nonzero; opacity: 1;"  paint-order="stroke"  transform=" translate(-10470.4875, -7323.6)" d="m 10179.7 7299.39 c -97.9 -73.68 -97.9 -193.09 0 -266.75 l 236.1 -177.71 c 181.4 287.82 323.4 602.67 418.9 937.34 l -655 -492.88" stroke-linecap="round" />
</g>
	<g transform="matrix(0.02218 0 0 -0.02218 59.64525301796414 72.23397388076015)"  >
<path style="stroke: none; stroke-width: 1; stroke-dasharray: none; stroke-linecap: butt; stroke-dashoffset: 0; stroke-linejoin: miter; stroke-miterlimit: 4; fill: rgb(84,84,85); fill-rule: nonzero; opacity: 1;"  paint-order="stroke"  transform=" translate(-10093.555, -6122.14375)" d="m 9406.36 5800.04 l 257.16 -193.53 c 97.86 -73.63 256.56 -73.63 354.48 0 l 689.4 518.82 c 97.8 73.68 97.8 193.11 0 266.74 L 10307.5 6693 c -246 -347.61 -551.07 -650.19 -901.14 -892.96" stroke-linecap="round" />
</g>
	<g transform="matrix(0.02218 0 0 -0.02218 50.326293017964076 67.46549388076014)"  >
<linearGradient id="SVGID_3670" gradientUnits="userSpaceOnUse" gradientTransform="matrix(1 0 0 1 8900.695 5800.040000000001)"  x1="0" y1="0" x2="0" y2="1166">
<stop offset="0%" style="stop-color:rgb(180,236,81);stop-opacity: 1"/>
<stop offset="100%" style="stop-color:rgb(66,147,33);stop-opacity: 1"/>
</linearGradient>
<path style="stroke: none; stroke-width: 1; stroke-dasharray: none; stroke-linecap: butt; stroke-dashoffset: 0; stroke-linejoin: miter; stroke-miterlimit: 4; fill: url(#SVGID_3670); fill-rule: nonzero; opacity: 1;"  paint-order="stroke"  transform=" translate(-9604.0975, -6383.095000000001)" d="m 9663.52 6910.89 l -689.43 -518.82 c -97.86 -73.63 -97.86 -193.06 0 -266.74 l 432.27 -325.29 c 350.07 242.77 655.14 545.35 901.14 892.96 l -289.5 217.89 c -97.92 73.68 -256.62 73.68 -354.48 0" stroke-linecap="round" />
</g>
	<g transform="matrix(0.02218 0 0 -0.02218 28.860553017964094 94.0502338807602)"  >
<path style="stroke: none; stroke-width: 1; stroke-dasharray: none; stroke-linecap: butt; stroke-dashoffset: 0; stroke-linejoin: miter; stroke-miterlimit: 4; fill: rgb(84,84,85); fill-rule: nonzero; opacity: 1;"  paint-order="stroke"  transform=" translate(-8693.9375, -5165.32375)" d="m 8457.91 4699.23 c 97.88 -73.67 256.56 -73.67 354.45 0 l 689.41 518.81 c 97.86 73.66 97.86 193.08 0 266.75 L 9233.5 5686.67 C 8809.47 5426.93 8327.96 5252.39 7812.71 5184.78 l 645.2 -485.55" stroke-linecap="round" />
</g>
	<g transform="matrix(0.02218 0 0 -0.02218 25.048863017964095 84.60316388076015)"  >
<linearGradient id="SVGID_3671" gradientUnits="userSpaceOnUse" gradientTransform="matrix(1 0 0 1 7695.09 5184.78)"  x1="0" y1="0" x2="0" y2="874">
<stop offset="0%" style="stop-color:rgb(180,236,81);stop-opacity: 1"/>
<stop offset="100%" style="stop-color:rgb(66,147,33);stop-opacity: 1"/>
</linearGradient>
<path style="stroke: none; stroke-width: 1; stroke-dasharray: none; stroke-linecap: butt; stroke-dashoffset: 0; stroke-linejoin: miter; stroke-miterlimit: 4; fill: url(#SVGID_3671); fill-rule: nonzero; opacity: 1;"  paint-order="stroke"  transform=" translate(-8464.295, -5621.81125)" d="M 8457.91 6003.62 L 7768.5 5484.79 c -97.88 -73.67 -97.88 -193.09 0 -266.75 l 44.21 -33.26 c 515.25 67.61 996.76 242.15 1420.79 501.89 l -421.14 316.95 c -97.89 73.63 -256.57 73.63 -354.45 0" stroke-linecap="round" />
</g>
	<g transform="matrix(0.02218 0 0 -0.02218 -85.48185698203588 47.20476388076011)"  >
<path style="stroke: none; stroke-width: 1; stroke-dasharray: none; stroke-linecap: butt; stroke-dashoffset: 0; stroke-linejoin: miter; stroke-miterlimit: 4; fill: rgb(84,84,85); fill-rule: nonzero; opacity: 1;"  paint-order="stroke"  transform=" translate(-3438.735, -7308.169051205799)" d="m 3446.04 7960.76 l -689.41 -518.82 c -97.88 -73.65 -97.88 -193.08 0 -266.74 l 689.41 -518.82 c 97.88 -73.67 256.58 -73.67 354.44 0 l 393.77 296.33 C 4011.51 7263.91 3873.98 7604.58 3790 7966 c -98.37 66.83 -249.18 66.08 -343.96 -5.24" stroke-linecap="round" />
</g>
	<g transform="matrix(0.02218 0 0 -0.02218 -70.03823698203587 43.85190388076015)"  >
<linearGradient id="SVGID_3672" gradientUnits="userSpaceOnUse" gradientTransform="matrix(1 0 0 1 3790 6952.709999999999)"  x1="0" y1="0" x2="0" y2="1013">
<stop offset="0%" style="stop-color:rgb(180,236,81);stop-opacity: 1"/>
<stop offset="100%" style="stop-color:rgb(66,147,33);stop-opacity: 1"/>
</linearGradient>
<path style="stroke: none; stroke-width: 1; stroke-dasharray: none; stroke-linecap: butt; stroke-dashoffset: 0; stroke-linejoin: miter; stroke-miterlimit: 4; fill: url(#SVGID_3672); fill-rule: nonzero; opacity: 1;"  paint-order="stroke"  transform=" translate(-4176.655, -7459.355)" d="m 4489.9 7441.94 l -689.42 518.82 c -3.09 2.35 -7.26 3.08 -10.48 5.24 c 83.98 -361.42 221.51 -702.09 404.25 -1013.29 l 295.65 222.49 c 97.88 73.66 97.88 193.09 0 266.74" stroke-linecap="round" />
</g>
	<g transform="matrix(0.02218 0 0 -0.02218 -60.568696982035874 71.3735338807601)"  >
<path style="stroke: none; stroke-width: 1; stroke-dasharray: none; stroke-linecap: butt; stroke-dashoffset: 0; stroke-linejoin: miter; stroke-miterlimit: 4; fill: rgb(84,84,85); fill-rule: nonzero; opacity: 1;"  paint-order="stroke"  transform=" translate(-4591.3775, -6185.14174560547)" d="m 4340.09 6723.96 l -314.71 -236.83 c -97.86 -73.68 -97.86 -193.09 0 -266.74 l 689.42 -518.82 c 97.88 -73.68 256.56 -73.68 354.44 0 l 161.53 121.56 c -346.74 246.12 -648.57 551.05 -890.68 900.83" stroke-linecap="round" />
</g>
	<g transform="matrix(0.02218 0 0 -0.02218 -49.870006982035875 66.4103738807602)"  >
<linearGradient id="SVGID_3673" gradientUnits="userSpaceOnUse" gradientTransform="matrix(1 0 0 1 4340.09 5823.130000000001)"  x1="0" y1="0" x2="0" y2="1238">
<stop offset="0%" style="stop-color:rgb(180,236,81);stop-opacity: 1"/>
<stop offset="100%" style="stop-color:rgb(66,147,33);stop-opacity: 1"/>
</linearGradient>
<path style="stroke: none; stroke-width: 1; stroke-dasharray: none; stroke-linecap: butt; stroke-dashoffset: 0; stroke-linejoin: miter; stroke-miterlimit: 4; fill: url(#SVGID_3673); fill-rule: nonzero; opacity: 1;"  paint-order="stroke"  transform=" translate(-5086.075000000001, -6442.155000000001)" d="m 5758.65 6487.13 l -689.41 518.82 c -97.88 73.64 -256.56 73.64 -354.44 0 l -374.71 -281.99 c 242.11 -349.78 543.94 -654.71 890.68 -900.83 l 527.88 397.26 c 97.88 73.65 97.88 193.06 0 266.74" stroke-linecap="round" />
</g>
	<g transform="matrix(0.02218 0 0 -0.02218 -26.720616982035892 93.75617388076014)"  >
<path style="stroke: none; stroke-width: 1; stroke-dasharray: none; stroke-linecap: butt; stroke-dashoffset: 0; stroke-linejoin: miter; stroke-miterlimit: 4; fill: rgb(84,84,85); fill-rule: nonzero; opacity: 1;"  paint-order="stroke"  transform=" translate(-6065.83, -5178.58375)" d="m 5294.14 5532.31 c -97.88 -73.67 -97.88 -193.06 0 -266.75 l 689.41 -518.81 c 97.88 -73.67 256.56 -73.67 354.45 0 l 572.93 431.16 C 6389.5 5238.42 5901.7 5408.7 5471.36 5665.67 l -177.22 -133.36" stroke-linecap="round" />
</g>
	<g transform="matrix(0.02218 0 0 -0.02218 -23.257246982035895 84.15227388076013)"  >
<linearGradient id="SVGID_3674" gradientUnits="userSpaceOnUse" gradientTransform="matrix(1 0 0 1 5471.360000000001 5177.91)"  x1="0" y1="0" x2="0" y2="928">
<stop offset="0%" style="stop-color:rgb(180,236,81);stop-opacity: 1"/>
<stop offset="100%" style="stop-color:rgb(66,147,33);stop-opacity: 1"/>
</linearGradient>
<path style="stroke: none; stroke-width: 1; stroke-dasharray: none; stroke-linecap: butt; stroke-dashoffset: 0; stroke-linejoin: miter; stroke-miterlimit: 4; fill: url(#SVGID_3674); fill-rule: nonzero; opacity: 1;"  paint-order="stroke"  transform=" translate(-6286.09, -5642.1425)" d="M 7027.41 5532.31 L 6338 6051.13 c -97.89 73.66 -256.57 73.66 -354.45 0 L 5471.36 5665.67 C 5901.7 5408.7 6389.5 5238.42 6910.93 5177.91 l 116.48 87.65 c 97.88 73.69 97.88 193.08 0 266.75" stroke-linecap="round" />
</g>
	<g transform="matrix(0.02218 0 0 -0.02218 2.100823017964103 110.72074388076012)"  >
<path style="stroke: none; stroke-width: 1; stroke-dasharray: none; stroke-linecap: butt; stroke-dashoffset: 0; stroke-linejoin: miter; stroke-miterlimit: 4; fill: rgb(84,84,85); fill-rule: nonzero; opacity: 1;"  paint-order="stroke"  transform=" translate(-7429.52875, -4444.125)" d="m 7606.75 3791.92 c -97.88 -73.65 -256.56 -73.65 -354.45 0 l -689.41 518.83 c -97.86 73.66 -97.86 193.08 0 266.75 l 689.41 518.83 c 97.89 73.65 256.57 73.65 354.45 0 l 689.41 -518.83 c 97.87 -73.67 97.87 -193.09 0 -266.75 l -689.41 -518.83" stroke-linecap="round" />
</g>
	<g transform="matrix(0.02218 0 0 -0.02218 -0.5371069820358798 -28.25813611923985)"  >
<linearGradient id="SVGID_3686" gradientUnits="userSpaceOnUse" gradientTransform="matrix(1 0 0 1 2154.459999999998 7497.84)"  x1="0" y1="0" x2="0" y2="6426">
<stop offset="0%" style="stop-color:rgb(250,217,97);stop-opacity: 1"/>
<stop offset="100%" style="stop-color:rgb(247,107,28);stop-opacity: 1"/>
</linearGradient>
<path style="stroke: none; stroke-width: 1; stroke-dasharray: none; stroke-linecap: butt; stroke-dashoffset: 0; stroke-linejoin: miter; stroke-miterlimit: 4; fill: url(#SVGID_3686); fill-rule: nonzero; opacity: 1;"  paint-order="stroke"  transform=" translate(-7310.579999999999, -10710.92)" d="m 2717.38 8767.94 c 0 2532.66 2060.49 4593.16 4593.18 4593.16 c 2532.71 0 4593.24 -2060.5 4593.24 -4593.16 c 0 -271.33 -25 -536.77 -70.4 -795.31 l 474.8 -474.79 c 103.4 406.44 158.5 831.95 158.5 1270.1 c 0 2843.06 -2313 5156.06 -5156.14 5156.06 c -2843.08 0 -5156.1 -2313 -5156.1 -5156.06 c 0 -375.3 40.68 -741.21 117.18 -1093.94 l 487.08 487.06 c -26.38 198.75 -41.34 401.05 -41.34 606.88" stroke-linecap="round" />
</g>
	<g transform="matrix(0.02218 0 0 -0.02218 142.1284030179641 18.47624388076011)"  >
<linearGradient id="SVGID_3687" gradientUnits="userSpaceOnUse" gradientTransform="matrix(1 0 0 1 13076.2 8210.284738466082)"  x1="0" y1="0" x2="0" y2="787">
<stop offset="0%" style="stop-color:rgb(250,217,97);stop-opacity: 1"/>
<stop offset="100%" style="stop-color:rgb(247,107,28);stop-opacity: 1"/>
</linearGradient>
<path style="stroke: none; stroke-width: 1; stroke-dasharray: none; stroke-linecap: butt; stroke-dashoffset: 0; stroke-linejoin: miter; stroke-miterlimit: 4; fill: url(#SVGID_3687); fill-rule: nonzero; opacity: 1;"  paint-order="stroke"  transform=" translate(-13743.611630091316, -8603.587100183242)" d="m 13076.2 8552.89 c 259.4 -117.46 519 -350.68 815.1 -342.39 c 289.7 8.09 522.4 190.64 519.7 407.73 c -2.7 217.09 -239.7 386.49 -529.4 378.38 c -303.5 -8.48 -545 -293.8 -805.4 -443.72" stroke-linecap="round" />
</g>
	<g transform="matrix(0.02218 0 0 -0.02218 128.63148301796411 -38.67076611923986)"  >
<linearGradient id="SVGID_3688" gradientUnits="userSpaceOnUse" gradientTransform="matrix(1 0 0 1 12514.3 10755.10422872725)"  x1="0" y1="0" x2="0" y2="851">
<stop offset="0%" style="stop-color:rgb(250,217,97);stop-opacity: 1"/>
<stop offset="100%" style="stop-color:rgb(247,107,28);stop-opacity: 1"/>
</linearGradient>
<path style="stroke: none; stroke-width: 1; stroke-dasharray: none; stroke-linecap: butt; stroke-dashoffset: 0; stroke-linejoin: miter; stroke-miterlimit: 4; fill: url(#SVGID_3688); fill-rule: nonzero; opacity: 1;"  paint-order="stroke"  transform=" translate(-13135.012268861816, -11180.443532213478)" d="m 12514.3 10808.4 c 280.3 -6.2 598.8 -120.2 872.2 5.5 c 267.5 123 424.7 385.9 351.1 587.3 c -73.6 201.3 -350.2 264.9 -617.6 141.9 c -280.2 -128.9 -412 -491.2 -605.7 -734.7" stroke-linecap="round" />
</g>
	<g transform="matrix(0.02218 0 0 -0.02218 98.15424301796412 -84.65173611923987)"  >
<linearGradient id="SVGID_3689" gradientUnits="userSpaceOnUse" gradientTransform="matrix(1 0 0 1 11251.600000000002 12687.6)"  x1="0" y1="0" x2="0" y2="1132">
<stop offset="0%" style="stop-color:rgb(250,217,97);stop-opacity: 1"/>
<stop offset="100%" style="stop-color:rgb(247,107,28);stop-opacity: 1"/>
</linearGradient>
<path style="stroke: none; stroke-width: 1; stroke-dasharray: none; stroke-linecap: butt; stroke-dashoffset: 0; stroke-linejoin: miter; stroke-miterlimit: 4; fill: url(#SVGID_3689); fill-rule: nonzero; opacity: 1;"  paint-order="stroke"  transform=" translate(-11760.741362123888, -13253.804093565741)" d="m 11251.6 12687.6 c 263.5 106 597.8 126.6 811.6 352.8 c 209.1 221.2 269.6 529 135 687.5 c -134.6 158.4 -413.2 107.4 -622.4 -113.8 c -219 -231.8 -223.3 -622.1 -324.2 -926.5" stroke-linecap="round" />
</g>
	<g transform="matrix(0.02218 0 0 -0.02218 54.32684301796411 -115.03955611923985)"  >
<linearGradient id="SVGID_3690" gradientUnits="userSpaceOnUse" gradientTransform="matrix(1 0 0 1 9399.691231503744 13936.899999999998)"  x1="0" y1="0" x2="0" y2="1374">
<stop offset="0%" style="stop-color:rgb(250,217,97);stop-opacity: 1"/>
<stop offset="100%" style="stop-color:rgb(247,107,28);stop-opacity: 1"/>
</linearGradient>
<path style="stroke: none; stroke-width: 1; stroke-dasharray: none; stroke-linecap: butt; stroke-dashoffset: 0; stroke-linejoin: miter; stroke-miterlimit: 4; fill: url(#SVGID_3690); fill-rule: nonzero; opacity: 1;"  paint-order="stroke"  transform=" translate(-9784.48908592861, -14624.042774370762)" d="m 9458.82 13936.9 c 210.95 203.8 515.97 356.2 641.18 652.3 c 122.6 289.6 78.2 600.7 -99.2 694.9 c -177.39 94 -420.53 -64.5 -543.09 -354.2 c -128.37 -303.4 -4.48 -669 1.11 -993" stroke-linecap="round" />
</g>
	<g transform="matrix(0.02218 0 0 -0.02218 1.6061330179641118 -126.12529611923983)"  >
<linearGradient id="SVGID_3691" gradientUnits="userSpaceOnUse" gradientTransform="matrix(1 0 0 1 7050.442289994149 14387.4)"  x1="0" y1="0" x2="0" y2="1473">
<stop offset="0%" style="stop-color:rgb(250,217,97);stop-opacity: 1"/>
<stop offset="100%" style="stop-color:rgb(247,107,28);stop-opacity: 1"/>
</linearGradient>
<path style="stroke: none; stroke-width: 1; stroke-dasharray: none; stroke-linecap: butt; stroke-dashoffset: 0; stroke-linejoin: miter; stroke-miterlimit: 4; fill: url(#SVGID_3691); fill-rule: nonzero; opacity: 1;"  paint-order="stroke"  transform=" translate(-7407.222209054287, -15123.917388932387)" d="m 7377.94 14387.4 c 129.96 274.1 364.46 537.8 384.3 863.7 c 19.42 319 -123.9 591.4 -320.12 608.5 c -196.23 17 -371.03 -227.7 -390.44 -546.6 c -20.33 -334.1 214.95 -625.7 326.26 -925.6" stroke-linecap="round" />
</g>
	<g transform="matrix(0.02218 0 0 -0.02218 -51.292356982035926 -116.35378611923986)"  >
<linearGradient id="SVGID_3692" gradientUnits="userSpaceOnUse" gradientTransform="matrix(1 0 0 1 4648.500117873584 13978.400000000001)"  x1="0" y1="0" x2="0" y2="1410">
<stop offset="0%" style="stop-color:rgb(250,217,97);stop-opacity: 1"/>
<stop offset="100%" style="stop-color:rgb(247,107,28);stop-opacity: 1"/>
</linearGradient>
<path style="stroke: none; stroke-width: 1; stroke-dasharray: none; stroke-linecap: butt; stroke-dashoffset: 0; stroke-linejoin: miter; stroke-miterlimit: 4; fill: url(#SVGID_3692); fill-rule: nonzero; opacity: 1;"  paint-order="stroke"  transform=" translate(-5021.938915379921, -14683.303644824446)" d="m 5290.01 13978.4 c 31.45 307.3 163.74 646.7 75.49 958.5 c -86.34 305.2 -309.2 502.1 -497.75 439.8 c -188.56 -62.3 -271.41 -360.1 -185.06 -665.3 c 90.44 -319.6 405.32 -497.7 607.32 -733" stroke-linecap="round" />
</g>
	<g transform="matrix(0.02218 0 0 -0.02218 -96.15622698203589 -87.07243611923988)"  >
<linearGradient id="SVGID_3693" gradientUnits="userSpaceOnUse" gradientTransform="matrix(1 0 0 1 2520.8506619095688 12765)"  x1="0" y1="0" x2="0" y2="1196">
<stop offset="0%" style="stop-color:rgb(250,217,97);stop-opacity: 1"/>
<stop offset="100%" style="stop-color:rgb(247,107,28);stop-opacity: 1"/>
</linearGradient>
<path style="stroke: none; stroke-width: 1; stroke-dasharray: none; stroke-linecap: butt; stroke-dashoffset: 0; stroke-linejoin: miter; stroke-miterlimit: 4; fill: url(#SVGID_3693); fill-rule: nonzero; opacity: 1;"  paint-order="stroke"  transform=" translate(-2998.9503309547845, -13362.957215545362)" d="m 3477.05 12765 c -71.34 299.2 -59.12 668.3 -243.51 923.9 c -180.46 250.1 -452.76 344.9 -608.19 211.7 c -155.43 -133.2 -135.14 -443.9 45.31 -694 c 189.02 -262 540.98 -302.7 806.39 -441.6" stroke-linecap="round" />
</g>
	<g transform="matrix(0.02218 0 0 -0.02218 -127.55993698203588 -42.281196119239866)"  >
<linearGradient id="SVGID_3694" gradientUnits="userSpaceOnUse" gradientTransform="matrix(1 0 0 1 981.927094041067 10901.824283088885)"  x1="0" y1="0" x2="0" y2="883">
<stop offset="0%" style="stop-color:rgb(250,217,97);stop-opacity: 1"/>
<stop offset="100%" style="stop-color:rgb(247,107,28);stop-opacity: 1"/>
</linearGradient>
<path style="stroke: none; stroke-width: 1; stroke-dasharray: none; stroke-linecap: butt; stroke-dashoffset: 0; stroke-linejoin: miter; stroke-miterlimit: 4; fill: url(#SVGID_3694); fill-rule: nonzero; opacity: 1;"  paint-order="stroke"  transform=" translate(-1582.9035470205336, -11343.243939039105)" d="m 2183.88 10911.2 c -164.48 250.5 -273.95 599.6 -529.64 764.5 c -250.19 161.3 -535.13 141.2 -636.45 -44.9 c -101.313 -186.2 19.37 -467.9 269.57 -629.2 c 262.04 -169 603.55 -66.7 896.52 -90.4" stroke-linecap="round" />
</g>
	<g transform="matrix(0.02218 0 0 -0.02218 -142.2196469820359 14.492883880760132)"  >
<linearGradient id="SVGID_3695" gradientUnits="userSpaceOnUse" gradientTransform="matrix(1 0 0 1 258.57432900328376 8386.509346113009)"  x1="0" y1="0" x2="0" y2="793">
<stop offset="0%" style="stop-color:rgb(250,217,97);stop-opacity: 1"/>
<stop offset="100%" style="stop-color:rgb(247,107,28);stop-opacity: 1"/>
</linearGradient>
<path style="stroke: none; stroke-width: 1; stroke-dasharray: none; stroke-linecap: butt; stroke-dashoffset: 0; stroke-linejoin: miter; stroke-miterlimit: 4; fill: url(#SVGID_3695); fill-rule: nonzero; opacity: 1;"  paint-order="stroke"  transform=" translate(-921.8721645016419, -8783.203510112782)" d="m 1585.17 8667.27 c -235.4 168.05 -451.81 449.91 -744.232 501.79 c -286.125 50.74 -545.25 -81.53 -578.774 -295.47 c -33.504 -213.94 171.274 -428.5 457.418 -479.25 c 299.698 -53.16 584.628 178.33 865.588 272.93" stroke-linecap="round" />
</g>
	<g transform="matrix(0.02218 0 0 -0.02218 -0.9090169820358938 -23.656736119239866)"  >
<linearGradient id="SVGID_3696" gradientUnits="userSpaceOnUse" gradientTransform="matrix(1 0 0 1 3653.5199999999977 8573.77)"  x1="0" y1="0" x2="0" y2="3859">
<stop offset="0%" style="stop-color:rgb(250,217,97);stop-opacity: 1"/>
<stop offset="100%" style="stop-color:rgb(247,107,28);stop-opacity: 1"/>
</linearGradient>
<path style="stroke: none; stroke-width: 1; stroke-dasharray: none; stroke-linecap: butt; stroke-dashoffset: 0; stroke-linejoin: miter; stroke-miterlimit: 4; fill: url(#SVGID_3696); fill-rule: nonzero; opacity: 1;"  paint-order="stroke"  transform=" translate(-7293.809999999998, -10503.435000000001)" d="M 7722.99 11028 L 10926.3 8573.77 c 4.4 72.57 7.8 145.37 7.8 219.06 c 0 2010.47 -1629.84 3640.27 -3640.3 3640.27 c -2010.47 0 -3640.28 -1629.8 -3640.28 -3640.27 c 0 -48.19 2.32 -95.83 4.23 -143.55 L 6762.46 11028 c 265.26 203.2 695.29 203.2 960.53 0" stroke-linecap="round" />
</g>
</g>
<g transform="matrix(1.965451055662188 0 0 1.965451055662188 640.0374280230326 764.9046926241562)" id="text-logo-path"  >
<path style="stroke: none; stroke-width: 1; stroke-dasharray: none; stroke-linecap: butt; stroke-dashoffset: 0; stroke-linejoin: miter; stroke-miterlimit: 4; fill: rgb(94,91,92); fill-rule: nonzero; opacity: 1;"  paint-order="stroke"  transform=" translate(-219.03, 27.31)" d="M 14.13 0 L 1.56 0 L 1.56 -54.62 L 14.13 -54.62 L 26.74 -54.62 Q 30.24 -54.62 33.29 -53.28 Q 36.33 -51.95 38.6 -49.68 Q 40.87 -47.42 42.2 -44.37 Q 43.53 -41.32 43.53 -37.82 L 43.53 -37.82 Q 43.53 -34.32 42.2 -31.27 Q 40.87 -28.22 38.6 -25.94 Q 36.33 -23.65 33.31 -22.32 Q 30.28 -20.99 26.74 -20.99 L 26.74 -20.99 L 14.13 -20.99 L 14.13 0 Z M 14.13 -41.97 L 14.13 -33.63 L 26.74 -33.63 Q 28.53 -33.63 29.75 -34.83 Q 30.96 -36.03 30.96 -37.82 L 30.96 -37.82 Q 30.96 -39.53 29.76 -40.75 Q 28.56 -41.97 26.74 -41.97 L 26.74 -41.97 L 14.13 -41.97 Z M 59.19 0 L 46.62 0 L 61.2 -54.62 L 61.36 -54.62 L 73.85 -54.62 L 74 -54.62 L 88.59 0 L 76.02 0 L 67.6 -31.34 L 59.19 0 Z M 104.24 0 L 91.67 0 L 91.67 -37.82 Q 91.67 -41.32 93.01 -44.37 Q 94.34 -47.42 96.59 -49.68 Q 98.83 -51.95 101.88 -53.28 Q 104.93 -54.62 108.43 -54.62 L 108.43 -54.62 L 116.85 -54.62 Q 120.35 -54.62 123.4 -53.28 Q 126.45 -51.95 128.71 -49.68 Q 130.98 -47.42 132.31 -44.37 Q 133.64 -41.32 133.64 -37.82 L 133.64 -37.82 L 133.64 0 L 121.08 0 L 121.08 -37.82 Q 121.08 -39.53 119.88 -40.79 Q 118.68 -42.05 116.85 -42.05 L 116.85 -42.05 L 108.43 -42.05 Q 106.64 -42.05 105.44 -40.79 Q 104.24 -39.53 104.24 -37.82 L 104.24 -37.82 L 104.24 0 Z M 136.73 -16.76 L 136.73 -16.76 L 136.73 -37.82 Q 136.73 -41.32 138.06 -44.37 Q 139.39 -47.42 141.64 -49.68 Q 143.89 -51.95 146.94 -53.28 Q 149.98 -54.62 153.49 -54.62 L 153.49 -54.62 L 178.7 -54.62 L 178.7 -41.97 L 153.49 -41.97 Q 151.7 -41.97 150.5 -40.75 Q 149.3 -39.53 149.3 -37.82 L 149.3 -37.82 L 149.3 -33.63 L 178.7 -33.63 L 178.7 -20.99 L 149.3 -20.99 L 149.3 -16.76 Q 149.3 -15.04 150.5 -13.81 Q 151.7 -12.57 153.49 -12.57 L 153.49 -12.57 L 178.7 -12.57 L 178.7 0 L 153.49 0 Q 149.98 0 146.94 -1.33 Q 143.89 -2.67 141.64 -4.91 Q 139.39 -7.16 138.06 -10.21 Q 136.73 -13.25 136.73 -16.76 Z M 181.78 -16.76 L 181.78 -16.76 L 181.78 -54.62 L 194.43 -54.62 L 194.43 -16.76 Q 194.43 -15.04 195.63 -13.81 Q 196.83 -12.57 198.54 -12.57 L 198.54 -12.57 L 211.19 -12.57 L 211.19 0 L 198.54 0 Q 195.04 0 191.99 -1.33 Q 188.94 -2.67 186.7 -4.91 Q 184.45 -7.16 183.12 -10.21 Q 181.78 -13.25 181.78 -16.76 Z M 214.31 -16.76 L 214.31 -16.76 L 214.31 -37.82 Q 214.31 -41.32 215.64 -44.37 Q 216.98 -47.42 219.22 -49.68 Q 221.47 -51.95 224.52 -53.28 Q 227.56 -54.62 231.07 -54.62 L 231.07 -54.62 L 239.48 -54.62 Q 242.99 -54.62 246.04 -53.28 Q 249.08 -51.95 251.35 -49.68 Q 253.61 -47.42 254.95 -44.37 Q 256.28 -41.32 256.28 -37.82 L 256.28 -37.82 L 243.71 -37.82 Q 243.71 -39.53 242.51 -40.75 Q 241.31 -41.97 239.48 -41.97 L 239.48 -41.97 L 231.07 -41.97 Q 229.28 -41.97 228.08 -40.75 Q 226.88 -39.53 226.88 -37.82 L 226.88 -37.82 L 226.88 -16.76 Q 226.88 -15.04 228.08 -13.81 Q 229.28 -12.57 231.07 -12.57 L 231.07 -12.57 L 239.48 -12.57 Q 241.27 -12.57 242.49 -13.81 Q 243.71 -15.04 243.71 -16.76 L 243.71 -16.76 L 256.28 -16.76 Q 256.28 -13.25 254.95 -10.21 Q 253.61 -7.16 251.35 -4.91 Q 249.08 -2.67 246.05 -1.33 Q 243.03 0 239.48 0 L 239.48 0 L 231.07 0 Q 227.56 0 224.52 -1.33 Q 221.47 -2.67 219.22 -4.91 Q 216.98 -7.16 215.64 -10.21 Q 214.31 -13.25 214.31 -16.76 Z M 271.93 0 L 259.37 0 L 259.37 -54.62 L 271.93 -54.62 L 271.93 -33.63 L 288.77 -33.63 L 288.77 -54.62 L 301.34 -54.62 L 301.34 0 L 288.77 0 L 288.77 -20.99 L 271.93 -20.99 L 271.93 0 Z M 304.42 -16.76 L 304.42 -16.76 L 304.42 -37.82 Q 304.42 -41.32 305.75 -44.37 Q 307.09 -47.42 309.33 -49.68 Q 311.58 -51.95 314.63 -53.28 Q 317.67 -54.62 321.18 -54.62 L 321.18 -54.62 L 346.39 -54.62 L 346.39 -41.97 L 321.18 -41.97 Q 319.39 -41.97 318.19 -40.75 Q 316.99 -39.53 316.99 -37.82 L 316.99 -37.82 L 316.99 -33.63 L 346.39 -33.63 L 346.39 -20.99 L 316.99 -20.99 L 316.99 -16.76 Q 316.99 -15.04 318.19 -13.81 Q 319.39 -12.57 321.18 -12.57 L 321.18 -12.57 L 346.39 -12.57 L 346.39 0 L 321.18 0 Q 317.67 0 314.63 -1.33 Q 311.58 -2.67 309.33 -4.91 Q 307.09 -7.16 305.75 -10.21 Q 304.42 -13.25 304.42 -16.76 Z M 349.48 -16.76 L 349.48 -16.76 L 349.48 -37.82 Q 349.48 -41.32 350.81 -44.37 Q 352.14 -47.42 354.39 -49.68 Q 356.64 -51.95 359.68 -53.28 Q 362.73 -54.62 366.23 -54.62 L 366.23 -54.62 L 374.65 -54.62 Q 378.16 -54.62 381.2 -53.28 Q 384.25 -51.95 386.52 -49.68 Q 388.78 -47.42 390.11 -44.37 Q 391.45 -41.32 391.45 -37.82 L 391.45 -37.82 L 378.88 -37.82 Q 378.88 -39.53 377.68 -40.75 Q 376.48 -41.97 374.65 -41.97 L 374.65 -41.97 L 366.23 -41.97 Q 364.44 -41.97 363.24 -40.75 Q 362.04 -39.53 362.04 -37.82 L 362.04 -37.82 L 362.04 -16.76 Q 362.04 -15.04 363.24 -13.81 Q 364.44 -12.57 366.23 -12.57 L 366.23 -12.57 L 374.65 -12.57 Q 376.44 -12.57 377.66 -13.81 Q 378.88 -15.04 378.88 -16.76 L 378.88 -16.76 L 391.45 -16.76 Q 391.45 -13.25 390.11 -10.21 Q 388.78 -7.16 386.52 -4.91 Q 384.25 -2.67 381.22 -1.33 Q 378.19 0 374.65 0 L 374.65 0 L 366.23 0 Q 362.73 0 359.68 -1.33 Q 356.64 -2.67 354.39 -4.91 Q 352.14 -7.16 350.81 -10.21 Q 349.48 -13.25 349.48 -16.76 Z M 407.1 0 L 394.53 0 L 394.53 -54.62 L 407.1 -54.62 L 407.1 -33.63 L 411.29 -33.63 Q 413.08 -33.63 414.3 -34.83 Q 415.52 -36.03 415.52 -37.82 L 415.52 -37.82 L 415.52 -54.62 L 428.09 -54.62 L 428.09 -37.82 Q 428.09 -34.62 427.06 -31.92 L 427.06 -31.92 Q 431.29 -29.9 433.89 -25.86 Q 436.5 -21.82 436.5 -16.76 L 436.5 -16.76 L 436.5 0 L 423.93 0 L 423.93 -16.76 Q 423.93 -18.55 422.73 -19.77 Q 421.54 -20.99 419.71 -20.99 L 419.71 -20.99 L 407.1 -20.99 L 407.1 0 Z" stroke-linecap="round" />
</g>
</svg>