<?xml version="1.0" encoding="UTF-8" standalone="no"?>
<svg
   xmlns:dc="http://purl.org/dc/elements/1.1/"
   xmlns:cc="http://creativecommons.org/ns#"
   xmlns:rdf="http://www.w3.org/1999/02/22-rdf-syntax-ns#"
   xmlns:svg="http://www.w3.org/2000/svg"
   xmlns="http://www.w3.org/2000/svg"
   xmlns:sodipodi="http://sodipodi.sourceforge.net/DTD/sodipodi-0.dtd"
   xmlns:inkscape="http://www.inkscape.org/namespaces/inkscape"
   version="1.1"
   width="286"
   height="40"
   viewBox="0 0 286 40"
   xml:space="preserve"
   id="svg279"
   sodipodi:docname="logo-title.svg"
   inkscape:version="0.92.5 (2060ec1f9f, 2020-04-08)"><metadata
   id="metadata283"><rdf:RDF><cc:Work
       rdf:about=""><dc:format>image/svg+xml</dc:format><dc:type
         rdf:resource="http://purl.org/dc/dcmitype/StillImage" /><dc:title></dc:title></cc:Work></rdf:RDF></metadata><sodipodi:namedview
   pagecolor="#ffffff"
   bordercolor="#666666"
   borderopacity="1"
   objecttolerance="10"
   gridtolerance="10"
   guidetolerance="10"
   inkscape:pageopacity="0"
   inkscape:pageshadow="2"
   inkscape:window-width="1920"
   inkscape:window-height="1147"
   id="namedview281"
   showgrid="false"
   inkscape:zoom="5.0734912"
   inkscape:cx="169.33739"
   inkscape:cy="36.611939"
   inkscape:window-x="-8"
   inkscape:window-y="-8"
   inkscape:window-maximized="1"
   inkscape:current-layer="svg279" />
<desc
   id="desc2">Created with Fabric.js 3.1.0</desc>
<defs
   id="defs4">
</defs>


<g
   transform="matrix(0.64544183,0,0,0.64544183,142.81731,20.042864)"
   id="text-logo-path">
<path
   style="opacity:1;fill:#5e5b5c;fill-rule:nonzero;stroke:none;stroke-width:1;stroke-linecap:butt;stroke-linejoin:miter;stroke-miterlimit:4;stroke-dasharray:none;stroke-dashoffset:0;paint-order:stroke"
   transform="translate(-219.03,27.31)"
   d="M 14.13,0 H 1.56 v -54.62 h 12.57 12.61 q 3.5,0 6.55,1.34 3.04,1.33 5.31,3.6 2.27,2.26 3.6,5.31 1.33,3.05 1.33,6.55 v 0 q 0,3.5 -1.33,6.55 -1.33,3.05 -3.6,5.33 -2.27,2.29 -5.29,3.62 -3.03,1.33 -6.57,1.33 v 0 H 14.13 Z m 0,-41.97 v 8.34 h 12.61 q 1.79,0 3.01,-1.2 1.21,-1.2 1.21,-2.99 v 0 q 0,-1.71 -1.2,-2.93 -1.2,-1.22 -3.02,-1.22 v 0 z M 59.19,0 H 46.62 L 61.2,-54.62 H 61.36 73.85 74 L 88.59,0 H 76.02 L 67.6,-31.34 Z m 45.05,0 H 91.67 v -37.82 q 0,-3.5 1.34,-6.55 1.33,-3.05 3.58,-5.31 2.24,-2.27 5.29,-3.6 3.05,-1.34 6.55,-1.34 v 0 h 8.42 q 3.5,0 6.55,1.34 3.05,1.33 5.31,3.6 2.27,2.26 3.6,5.31 1.33,3.05 1.33,6.55 v 0 V 0 h -12.56 v -37.82 q 0,-1.71 -1.2,-2.97 -1.2,-1.26 -3.03,-1.26 v 0 h -8.42 q -1.79,0 -2.99,1.26 -1.2,1.26 -1.2,2.97 v 0 z m 32.49,-16.76 v 0 -21.06 q 0,-3.5 1.33,-6.55 1.33,-3.05 3.58,-5.31 2.25,-2.27 5.3,-3.6 3.04,-1.34 6.55,-1.34 v 0 h 25.21 v 12.65 h -25.21 q -1.79,0 -2.99,1.22 -1.2,1.22 -1.2,2.93 v 0 4.19 h 29.4 v 12.64 h -29.4 v 4.23 q 0,1.72 1.2,2.95 1.2,1.24 2.99,1.24 v 0 H 178.7 V 0 h -25.21 q -3.51,0 -6.55,-1.33 -3.05,-1.34 -5.3,-3.58 -2.25,-2.25 -3.58,-5.3 -1.33,-3.04 -1.33,-6.55 z m 45.05,0 v 0 -37.86 h 12.65 v 37.86 q 0,1.72 1.2,2.95 1.2,1.24 2.91,1.24 v 0 h 12.65 V 0 h -12.65 q -3.5,0 -6.55,-1.33 -3.05,-1.34 -5.29,-3.58 -2.25,-2.25 -3.58,-5.3 -1.34,-3.04 -1.34,-6.55 z m 32.53,0 v 0 -21.06 q 0,-3.5 1.33,-6.55 1.34,-3.05 3.58,-5.31 2.25,-2.27 5.3,-3.6 3.04,-1.34 6.55,-1.34 v 0 h 8.41 q 3.51,0 6.56,1.34 3.04,1.33 5.31,3.6 2.26,2.26 3.6,5.31 1.33,3.05 1.33,6.55 v 0 h -12.57 q 0,-1.71 -1.2,-2.93 -1.2,-1.22 -3.03,-1.22 v 0 h -8.41 q -1.79,0 -2.99,1.22 -1.2,1.22 -1.2,2.93 v 0 21.06 q 0,1.72 1.2,2.95 1.2,1.24 2.99,1.24 v 0 h 8.41 q 1.79,0 3.01,-1.24 1.22,-1.23 1.22,-2.95 v 0 h 12.57 q 0,3.51 -1.33,6.55 -1.34,3.05 -3.6,5.3 -2.27,2.24 -5.3,3.58 Q 243.03,0 239.48,0 v 0 h -8.41 q -3.51,0 -6.55,-1.33 -3.05,-1.34 -5.3,-3.58 -2.24,-2.25 -3.58,-5.3 -1.33,-3.04 -1.33,-6.55 z M 271.93,0 h -12.56 v -54.62 h 12.56 v 20.99 h 16.84 v -20.99 h 12.57 V 0 h -12.57 v -20.99 h -16.84 z m 32.49,-16.76 v 0 -21.06 q 0,-3.5 1.33,-6.55 1.34,-3.05 3.58,-5.31 2.25,-2.27 5.3,-3.6 3.04,-1.34 6.55,-1.34 v 0 h 25.21 v 12.65 h -25.21 q -1.79,0 -2.99,1.22 -1.2,1.22 -1.2,2.93 v 0 4.19 h 29.4 v 12.64 h -29.4 v 4.23 q 0,1.72 1.2,2.95 1.2,1.24 2.99,1.24 v 0 h 25.21 V 0 h -25.21 q -3.51,0 -6.55,-1.33 -3.05,-1.34 -5.3,-3.58 -2.24,-2.25 -3.58,-5.3 -1.33,-3.04 -1.33,-6.55 z m 45.06,0 v 0 -21.06 q 0,-3.5 1.33,-6.55 1.33,-3.05 3.58,-5.31 2.25,-2.27 5.29,-3.6 3.05,-1.34 6.55,-1.34 v 0 h 8.42 q 3.51,0 6.55,1.34 3.05,1.33 5.32,3.6 2.26,2.26 3.59,5.31 1.34,3.05 1.34,6.55 v 0 h -12.57 q 0,-1.71 -1.2,-2.93 -1.2,-1.22 -3.03,-1.22 v 0 h -8.42 q -1.79,0 -2.99,1.22 -1.2,1.22 -1.2,2.93 v 0 21.06 q 0,1.72 1.2,2.95 1.2,1.24 2.99,1.24 v 0 h 8.42 q 1.79,0 3.01,-1.24 1.22,-1.23 1.22,-2.95 v 0 h 12.57 q 0,3.51 -1.34,6.55 -1.33,3.05 -3.59,5.3 -2.27,2.24 -5.3,3.58 Q 378.19,0 374.65,0 v 0 h -8.42 q -3.5,0 -6.55,-1.33 -3.04,-1.34 -5.29,-3.58 -2.25,-2.25 -3.58,-5.3 -1.33,-3.04 -1.33,-6.55 z M 407.1,0 h -12.57 v -54.62 h 12.57 v 20.99 h 4.19 q 1.79,0 3.01,-1.2 1.22,-1.2 1.22,-2.99 v 0 -16.8 h 12.57 v 16.8 q 0,3.2 -1.03,5.9 v 0 q 4.23,2.02 6.83,6.06 2.61,4.04 2.61,9.1 v 0 V 0 h -12.57 v -16.76 q 0,-1.79 -1.2,-3.01 -1.19,-1.22 -3.02,-1.22 v 0 H 407.1 Z"
   id="path276"
   inkscape:connector-curvature="0" />
</g>
</svg>